<svg xmlns="http://www.w3.org/2000/svg" xmlns:xlink="http://www.w3.org/1999/xlink" width="50" zoomAndPan="magnify" viewBox="0 0 37.5 37.499999" height="50" preserveAspectRatio="xMidYMid meet" version="1.0"><defs><clipPath id="24b15b2ad6"><path d="M 11.910156 0 L 25.234375 0 L 25.234375 37 L 11.910156 37 Z M 11.910156 0 " clip-rule="nonzero"/></clipPath></defs><g clip-path="url(#24b15b2ad6)"><path fill="#ffffff" d="M 18.289062 8.757812 C 18.289062 8.757812 18.300781 8.699219 18.25 8.664062 C 18.199219 8.625 17.8125 8.277344 17.75 8.253906 C 17.691406 8.234375 17.65625 8.234375 17.644531 8.214844 C 17.632812 8.191406 17.625 8.132812 17.566406 8.121094 C 17.503906 8.109375 17.460938 8.066406 17.449219 8.03125 C 17.433594 7.996094 17.507812 7.914062 17.464844 7.878906 C 17.425781 7.84375 17.449219 7.78125 17.457031 7.699219 C 17.464844 7.617188 17.566406 6.628906 17.589844 6.414062 C 17.613281 6.199219 18.085938 4.585938 18.109375 4.542969 C 18.132812 4.5 18.101562 4.457031 18.101562 4.457031 C 18.101562 4.457031 18.285156 4.136719 18.359375 4.117188 C 18.359375 4.117188 18.410156 4.152344 18.453125 4.210938 C 18.492188 4.273438 18.539062 4.332031 18.597656 4.371094 C 18.652344 4.410156 18.726562 4.570312 18.773438 4.6875 C 18.824219 4.800781 19.191406 5.765625 19.253906 5.945312 C 19.316406 6.128906 19.609375 6.996094 19.71875 7.238281 C 19.828125 7.480469 20.300781 8.246094 20.375 8.355469 C 20.449219 8.460938 20.519531 8.65625 20.640625 8.734375 C 20.765625 8.808594 20.828125 8.871094 20.863281 8.960938 C 20.945312 9.164062 21.164062 9.457031 21.164062 9.457031 C 21.164062 9.457031 21.125 9.507812 21.136719 9.554688 C 21.144531 9.601562 21.28125 9.734375 21.28125 9.734375 C 21.28125 9.734375 21.21875 9.824219 21.125 9.871094 C 21.03125 9.917969 21.015625 9.925781 21.039062 10.019531 C 21.0625 10.117188 21.144531 10.28125 21.144531 10.28125 C 21.144531 10.28125 20.957031 10.351562 20.945312 10.410156 C 20.945312 10.410156 20.523438 10.054688 20.171875 9.90625 C 19.816406 9.757812 19.265625 9.597656 19.210938 9.5625 C 19.15625 9.53125 18.335938 8.785156 18.289062 8.757812 Z M 19.027344 34.257812 C 19.027344 34.257812 19.011719 34.289062 19 34.324219 C 18.988281 34.355469 18.988281 34.390625 18.980469 34.390625 C 18.910156 34.390625 18.789062 34.425781 18.765625 34.417969 C 18.738281 34.410156 18.667969 34.367188 18.707031 34.308594 C 18.742188 34.25 18.84375 34.242188 18.914062 34.242188 C 18.980469 34.242188 19.027344 34.257812 19.027344 34.257812 Z M 12.300781 34.789062 C 12.609375 34.894531 13.3125 34.882812 13.65625 34.613281 C 14 34.339844 14.027344 34.039062 14.066406 33.988281 C 14.101562 33.9375 14.28125 33.949219 14.375 33.9375 C 14.46875 33.921875 14.960938 33.78125 15.148438 33.636719 C 15.332031 33.488281 15.386719 33.296875 15.386719 33.148438 C 15.386719 33 15.316406 32.894531 15.316406 32.894531 C 15.316406 32.894531 15.308594 32.742188 15.273438 32.601562 C 15.253906 32.53125 15.109375 32.085938 15.097656 32.042969 C 15.085938 32.003906 15.121094 31.777344 15.109375 31.734375 C 15.101562 31.691406 14.921875 31.644531 14.921875 31.644531 C 14.921875 31.644531 15 31.191406 15.035156 31.042969 C 15.070312 30.890625 15.210938 30.597656 15.25 30.511719 C 15.292969 30.421875 15.230469 30.378906 15.230469 30.378906 C 15.230469 30.378906 15.75 28.730469 15.800781 28.644531 C 15.851562 28.554688 16.269531 27.988281 16.371094 27.648438 C 16.46875 27.3125 16.445312 26.371094 16.582031 26.117188 C 16.722656 25.859375 17.207031 25.171875 17.207031 25.171875 C 17.207031 25.171875 17.246094 25.179688 17.296875 25.171875 C 17.34375 25.160156 17.570312 24.882812 17.765625 24.636719 C 17.964844 24.390625 18.324219 23.941406 18.484375 23.726562 C 18.640625 23.507812 19.1875 23.019531 19.1875 23.019531 C 19.1875 23.019531 19.226562 23.714844 19.171875 23.945312 C 19.117188 24.175781 19.027344 24.632812 19.035156 24.925781 C 19.039062 25.21875 18.964844 25.328125 19.035156 25.492188 C 19.101562 25.660156 19.648438 25.847656 19.648438 25.847656 C 19.667969 26.15625 19.792969 26.445312 19.800781 26.507812 C 19.8125 26.570312 19.738281 26.839844 19.75 27.042969 C 19.765625 27.242188 19.851562 27.433594 19.851562 27.433594 C 19.816406 27.460938 19.824219 27.59375 19.859375 27.648438 C 19.894531 27.703125 19.929688 27.917969 19.949219 28.050781 C 19.96875 28.183594 20.046875 28.203125 20.046875 28.203125 C 20.046875 28.203125 20.035156 29.492188 20.039062 29.714844 C 20.042969 29.941406 19.953125 31.898438 19.953125 31.898438 C 19.953125 31.898438 19.894531 31.9375 19.871094 31.984375 C 19.847656 32.03125 19.855469 32.355469 19.835938 32.457031 C 19.816406 32.558594 19.761719 32.703125 19.707031 32.910156 C 19.648438 33.117188 19.375 33.625 19.375 33.625 C 19.375 33.625 19.300781 33.589844 19.226562 33.632812 C 19.152344 33.675781 19.144531 33.917969 19.144531 33.917969 C 19.144531 33.917969 19.15625 33.960938 19.105469 34.003906 C 19.050781 34.046875 19.066406 34.117188 19.074219 34.136719 C 19.082031 34.15625 19.0625 34.183594 19.0625 34.183594 C 19.0625 34.183594 18.976562 34.15625 18.894531 34.164062 C 18.8125 34.171875 18.703125 34.199219 18.652344 34.292969 C 18.601562 34.382812 18.730469 34.453125 18.730469 34.453125 C 18.6875 34.476562 18.683594 34.507812 18.65625 34.527344 C 18.628906 34.546875 18.429688 34.539062 18.386719 34.542969 C 18.34375 34.546875 18.359375 34.578125 18.359375 34.578125 C 18.359375 34.578125 18.617188 34.558594 18.679688 34.570312 C 18.742188 34.578125 18.910156 34.546875 18.910156 34.546875 C 18.910156 34.546875 18.695312 34.953125 18.558594 35.101562 C 18.417969 35.246094 17.796875 35.738281 17.652344 35.949219 C 17.507812 36.160156 17.546875 36.335938 17.648438 36.453125 C 17.746094 36.570312 18.332031 37.003906 19.015625 36.816406 C 19.773438 36.601562 19.796875 36.132812 20.019531 35.914062 C 20.242188 35.691406 20.238281 35.871094 20.632812 35.582031 C 21.027344 35.292969 21.078125 35.023438 21.078125 34.882812 C 21.078125 34.746094 21.003906 34.628906 21.003906 34.628906 C 21.003906 34.3125 20.835938 33.878906 20.835938 33.828125 C 20.835938 33.773438 20.886719 33.605469 20.878906 33.550781 C 20.875 33.5 20.730469 33.40625 20.730469 33.40625 C 20.730469 33.40625 20.746094 33.183594 20.761719 32.988281 C 20.777344 32.792969 20.960938 32.296875 20.984375 32.195312 C 21.007812 32.09375 20.917969 32.042969 20.917969 32.042969 C 20.917969 32.042969 21.34375 30.152344 21.386719 29.933594 C 21.433594 29.71875 21.632812 29.4375 21.679688 28.976562 C 21.726562 28.511719 21.496094 27.730469 21.496094 27.730469 C 21.496094 27.730469 21.542969 27.675781 21.519531 27.617188 C 21.496094 27.558594 21.433594 27.367188 21.4375 27.28125 C 21.441406 27.199219 21.347656 27.171875 21.347656 27.171875 C 21.316406 27.054688 21.535156 26.027344 21.535156 26.027344 C 21.535156 26.027344 21.769531 25.996094 21.777344 25.851562 C 21.785156 25.707031 22.253906 24.953125 22.457031 24.472656 C 22.664062 23.996094 22.589844 23.476562 22.75 23.214844 C 22.90625 22.953125 23.089844 22.382812 23.089844 22.382812 C 23.296875 22.300781 23.441406 22.050781 23.453125 21.652344 C 23.460938 21.453125 23.652344 20.425781 23.660156 19.941406 C 23.664062 19.457031 23.289062 19.183594 23.300781 19.066406 C 23.316406 18.949219 23.289062 18.53125 23.289062 18.53125 C 23.289062 18.53125 23.503906 18.476562 23.644531 18.296875 C 23.742188 18.171875 23.78125 17.945312 23.804688 17.820312 C 23.84375 17.609375 23.671875 16.957031 23.664062 16.878906 C 23.660156 16.800781 23.71875 16.605469 23.785156 16.464844 C 23.851562 16.328125 23.71875 16.023438 23.707031 15.929688 C 23.691406 15.839844 23.765625 15.488281 23.917969 15.171875 C 24.066406 14.859375 24.492188 14.195312 24.6875 14.003906 C 24.886719 13.816406 24.855469 13.574219 25.011719 13.03125 C 25.148438 12.558594 24.984375 11.984375 24.984375 11.984375 C 24.984375 11.984375 25.222656 11.34375 24.894531 10.847656 C 24.664062 10.503906 24.304688 10.15625 24.304688 10.15625 C 24.304688 10.15625 24.515625 9.929688 24.503906 9.453125 C 24.492188 8.972656 24.246094 8.386719 23.445312 8.21875 C 22.644531 8.054688 22.109375 8.355469 22.109375 8.355469 C 21.832031 8.117188 21.601562 7.300781 21.265625 6.820312 C 20.929688 6.335938 20.480469 5.863281 20.296875 5.59375 C 20.109375 5.328125 19.640625 4.359375 19.59375 4.25 C 19.546875 4.136719 19.550781 4.039062 19.570312 3.964844 C 19.589844 3.890625 19.664062 3.816406 19.792969 3.714844 C 19.921875 3.609375 19.9375 3.488281 19.960938 3.414062 C 19.988281 3.335938 20.125 3.179688 20.265625 3.109375 C 20.386719 3.046875 20.445312 2.988281 20.429688 2.9375 C 20.417969 2.890625 20.308594 2.835938 20.148438 2.859375 C 19.984375 2.882812 19.851562 3.003906 19.792969 3.09375 C 19.730469 3.179688 19.714844 3.21875 19.667969 3.210938 C 19.621094 3.199219 19.578125 3.1875 19.578125 3.1875 C 19.640625 3.105469 19.691406 3.035156 19.738281 2.96875 C 19.785156 2.902344 19.847656 2.710938 19.855469 2.667969 C 19.867188 2.625 19.824219 2.582031 19.785156 2.582031 C 19.78125 2.582031 19.777344 2.582031 19.769531 2.585938 C 19.9375 2.324219 20.035156 2.015625 20.035156 1.683594 C 20.035156 0.753906 19.273438 0 18.332031 0 C 17.390625 0 16.628906 0.753906 16.628906 1.683594 C 16.628906 2.453125 17.148438 3.097656 17.855469 3.304688 C 17.902344 3.339844 17.941406 3.386719 17.902344 3.394531 C 17.835938 3.40625 17.730469 3.4375 17.578125 3.515625 C 17.421875 3.59375 17.386719 3.820312 17.355469 3.933594 C 17.324219 4.050781 17.238281 4.191406 17.238281 4.191406 C 17.238281 4.191406 17.210938 4.171875 17.15625 4.246094 C 17.105469 4.316406 16.199219 6.765625 16.097656 7.261719 C 16.085938 7.316406 15.820312 8.09375 15.914062 8.351562 C 15.984375 8.546875 16.339844 9.085938 16.546875 9.257812 C 16.757812 9.429688 16.925781 9.757812 16.984375 9.832031 C 17.042969 9.90625 17.136719 9.941406 17.136719 9.941406 C 17.136719 9.941406 17.800781 10.804688 18.40625 11.09375 C 18.730469 11.253906 19.078125 11.484375 19.078125 11.542969 C 19.078125 11.601562 19.109375 11.894531 19.109375 11.894531 C 19.109375 11.894531 19.066406 12.128906 18.683594 13.019531 C 18.296875 13.914062 17.820312 14.753906 17.839844 15.273438 C 17.859375 15.792969 17.8125 16.195312 17.769531 16.46875 C 17.730469 16.742188 17.960938 17.222656 17.984375 17.257812 C 18.007812 17.292969 18.015625 17.421875 18.042969 17.464844 C 18.074219 17.507812 18.175781 17.480469 18.261719 17.558594 C 18.339844 17.628906 18.703125 17.804688 18.761719 17.832031 C 18.753906 17.832031 18.738281 17.84375 18.703125 17.886719 C 18.640625 17.960938 18.65625 18.082031 18.597656 18.078125 C 18.539062 18.070312 18.261719 17.949219 18.203125 18.019531 C 18.140625 18.085938 17.5 18.777344 17.386719 18.9375 C 17.269531 19.101562 17.082031 19.457031 17.042969 19.902344 C 17.003906 20.347656 16.464844 21.308594 16.324219 21.59375 C 16.1875 21.878906 16.046875 21.828125 15.90625 22.039062 C 15.761719 22.25 15.722656 22.390625 15.46875 22.652344 C 15.292969 22.832031 15.1875 23.171875 15.042969 23.332031 C 14.898438 23.496094 14.652344 23.574219 14.652344 23.574219 C 14.652344 23.574219 14.65625 23.601562 14.765625 23.714844 C 14.875 23.828125 15.203125 23.964844 15.304688 24.117188 C 15.410156 24.269531 15.492188 24.316406 15.492188 24.316406 C 15.449219 24.519531 15.21875 24.867188 15.152344 24.996094 C 15.085938 25.128906 15.011719 25.460938 15.003906 25.609375 C 15 25.761719 15.003906 26.003906 14.839844 26.363281 C 14.675781 26.722656 14.34375 28.257812 14.304688 28.660156 C 14.261719 29.066406 14.128906 30.144531 14.128906 30.144531 C 14.058594 30.160156 14.050781 30.261719 14.046875 30.316406 C 14.046875 30.371094 13.96875 30.714844 13.941406 30.886719 C 13.917969 31.054688 13.808594 31.414062 13.769531 31.617188 C 13.726562 31.820312 13.621094 32.058594 13.535156 32.03125 C 13.453125 32.003906 13.425781 32.136719 13.414062 32.226562 C 13.40625 32.320312 13.351562 32.421875 13.351562 32.421875 C 13.351562 32.421875 13.304688 32.441406 13.167969 32.46875 C 13.027344 32.496094 12.976562 32.550781 12.953125 32.554688 C 12.929688 32.558594 12.757812 32.566406 12.726562 32.566406 C 12.691406 32.566406 12.683594 32.605469 12.707031 32.601562 C 12.734375 32.601562 12.910156 32.59375 12.929688 32.617188 C 12.949219 32.640625 13.039062 32.667969 13.039062 32.667969 C 13.039062 32.667969 13.027344 32.726562 13.035156 32.761719 C 13.042969 32.792969 13.140625 32.8125 13.140625 32.8125 C 13.140625 32.8125 13.015625 33.0625 12.914062 33.179688 C 12.8125 33.292969 12.324219 33.757812 12.152344 33.929688 C 11.984375 34.097656 11.957031 34.375 11.957031 34.375 C 11.957031 34.375 11.933594 34.425781 11.925781 34.480469 C 11.917969 34.535156 11.996094 34.679688 12.300781 34.789062 " fill-opacity="1" fill-rule="nonzero"/></g></svg>