<svg xmlns="http://www.w3.org/2000/svg" xmlns:xlink="http://www.w3.org/1999/xlink" width="300" zoomAndPan="magnify" viewBox="0 0 224.87999 225" height="300" preserveAspectRatio="xMidYMid meet" version="1.0"><defs><clipPath id="518c6f81c9"><path d="M 32.875 32.933594 L 191.789062 32.933594 L 191.789062 191.847656 L 32.875 191.847656 Z M 32.875 32.933594 " clip-rule="nonzero"/></clipPath></defs><g clip-path="url(#518c6f81c9)"><path fill="#a6a6a6" d="M 191.996094 192.058594 L 191.996094 175.359375 C 191.996094 167.25 186.75 160.367188 179.472656 157.929688 C 178.898438 157.734375 141.640625 148.214844 136.308594 137.628906 C 133.875 132.792969 136.273438 126.597656 138.703125 122.324219 C 139.8125 120.828125 140.902344 119.246094 141.945312 117.585938 C 141.945312 117.574219 141.945312 117.574219 141.945312 117.574219 C 148.257812 107.472656 153.078125 94.1875 153.566406 77.765625 C 154.304688 53.058594 135.1875 32.996094 112.492188 32.9375 C 112.472656 32.9375 112.457031 32.9375 112.4375 32.9375 C 112.421875 32.9375 112.402344 32.9375 112.382812 32.9375 C 89.691406 32.996094 70.574219 53.058594 71.316406 77.765625 C 71.808594 94.191406 76.621094 107.476562 82.933594 117.574219 C 82.933594 117.574219 82.9375 117.574219 82.9375 117.585938 C 83.976562 119.246094 85.066406 120.828125 86.175781 122.324219 C 88.605469 126.597656 91.003906 132.792969 88.570312 137.628906 C 83.242188 148.214844 45.980469 157.734375 45.40625 157.929688 C 38.128906 160.367188 32.878906 167.253906 32.878906 175.363281 L 32.878906 192.058594 Z M 191.996094 192.058594 " fill-opacity="1" fill-rule="nonzero"/></g></svg>